<?xml version="1.0" encoding="utf-8"?>
<!-- Generator: Adobe Illustrator 28.0.0, SVG Export Plug-In . SVG Version: 6.00 Build 0)  -->
<svg version="1.1" id="_x32_" xmlns="http://www.w3.org/2000/svg" xmlns:xlink="http://www.w3.org/1999/xlink" x="0px" y="0px"
	 viewBox="0 0 800 800" style="enable-background:new 0 0 800 800;" xml:space="preserve">
<style type="text/css">
	.st0{fill:#400EB1;fill-opacity:0;}
	.st1{fill:#400EB1;}
</style>
<rect class="st0" width="800" height="800"/>
<g>
	<path class="st1" d="M642.8,79.9c-16.8-13.6-42.3-4-67.7,21.5c-23.1,22.7-143.7,143.4-205.8,217.2c-43.7,47-76.8,91.8-81.9,122.9
		c-3.2,19.7,1.1,35.9,8.7,42l24.6,19.8c7.6,6.2,24.4,7,43-0.2c29.4-11.4,66.2-53.2,103-105.8c59.1-76.1,152-219.4,169.3-246.7
		C655.6,120.5,659.6,93.5,642.8,79.9z"/>
	<path class="st1" d="M264,484.3c-30-5.1-61.9,5.7-82.4,31.1c-49.2,60.9-43.7,162.7-1.1,210.9c0,0,3.9-6.1,18-17.8
		c38.9-32.4,86-43.1,118.6-83.4c20.6-25.4,24.4-58.8,13.1-87.1L264,484.3z"/>
</g>
</svg>
