<?xml version="1.0" encoding="utf-8"?>
<!-- Generator: Adobe Illustrator 28.0.0, SVG Export Plug-In . SVG Version: 6.00 Build 0)  -->
<svg version="1.1" id="Calque_1" xmlns="http://www.w3.org/2000/svg" xmlns:xlink="http://www.w3.org/1999/xlink" x="0px" y="0px"
	 viewBox="0 0 800 800" style="enable-background:new 0 0 800 800;" xml:space="preserve">
<style type="text/css">
	.st0{opacity:0;fill:#FFFFFF;}
	.st1{fill:#FFFFFF;}
</style>
<rect class="st0" width="800" height="800"/>
<path class="st1" d="M623.6,243.1c-12.8-13.2-33.9-13.6-47.1-0.8c-13.2,12.8-13.6,33.9-0.8,47.1c0.3,0.3,0.5,0.6,0.8,0.8L686.2,400
	L576.4,509.8c-13.2,12.8-13.6,33.9-0.8,47.1s33.9,13.6,47.1,0.8c0.3-0.3,0.6-0.5,0.8-0.8l133.3-133.3c13-13,13-34.1,0-47.1
	L623.6,243.1z M434.6,157.5L301.3,624.2c-5.1,17.7,5.2,36.1,22.9,41.2c3,0.8,6.1,1.3,9.2,1.3c14.9,0,28-9.9,32-24.2l133.3-466.7
	c5.7-17.5-3.9-36.3-21.4-42c-17.5-5.7-36.3,3.9-42,21.4C435.1,155.9,434.8,156.7,434.6,157.5L434.6,157.5z M176.4,556.9
	c12.8,13.2,33.9,13.6,47.1,0.8c13.2-12.8,13.6-33.9,0.8-47.1c-0.3-0.3-0.5-0.6-0.8-0.8L113.8,400l109.8-109.8
	c13.2-12.8,13.6-33.9,0.8-47.1c-12.8-13.2-33.9-13.6-47.1-0.8c-0.3,0.3-0.6,0.5-0.8,0.8L43.1,376.4c-13,13-13,34.1,0,47.1
	L176.4,556.9z"/>
</svg>
