<?xml version="1.0" encoding="utf-8"?>
<!-- Generator: Adobe Illustrator 28.0.0, SVG Export Plug-In . SVG Version: 6.00 Build 0)  -->
<svg version="1.1" id="_x32_" xmlns="http://www.w3.org/2000/svg" xmlns:xlink="http://www.w3.org/1999/xlink" x="0px" y="0px"
	 viewBox="0 0 800 800" style="enable-background:new 0 0 800 800;" xml:space="preserve">
<style type="text/css">
	.st0{opacity:0;fill:#400EB1;}
	.st1{fill:#400EB1;}
</style>
<rect class="st0" width="800" height="800"/>
<g>
	<path class="st1" d="M697.7,7.6c-20.6-16.7-51.9-4.9-83,26.4c-28.3,27.8-176.2,175.8-252.3,266.3
		c-53.6,57.6-94.2,112.5-100.4,150.7c-3.9,24.1,1.4,44,10.7,51.5l30.1,24.3c9.3,7.6,29.9,8.6,52.7-0.3c36-14,81.2-65.2,126.3-129.7
		c72.5-93.3,186.3-269,207.5-302.4C713.4,57.3,718.3,24.2,697.7,7.6z"/>
	<path class="st1" d="M233.3,503.4c-36.8-6.2-75.9,7-101,38.1C72,616.1,78.7,741,131,800c0,0,4.8-7.5,22.1-21.8
		c47.7-39.7,105.4-52.8,145.4-102.3c25.2-31.1,29.9-72.1,16.1-106.8L233.3,503.4z"/>
</g>
</svg>
