<?xml version="1.0" encoding="utf-8"?>
<!-- Generator: Adobe Illustrator 28.0.0, SVG Export Plug-In . SVG Version: 6.00 Build 0)  -->
<svg version="1.1" id="Calque_1" xmlns="http://www.w3.org/2000/svg" xmlns:xlink="http://www.w3.org/1999/xlink" x="0px" y="0px"
	 viewBox="0 0 1000 1000" style="enable-background:new 0 0 1000 1000;" xml:space="preserve">
<style type="text/css">
	.st0{fill:#400EB1;}
</style>
<path class="st0" d="M923.91,839.06l-207.7-207.7c-10.34-10.34-26.95-10.59-37.59-0.74l-70.89-70.89
	c40.91-51.34,65.37-116.38,65.37-187.13c0-165.96-134.54-300.5-300.5-300.5S72.1,206.64,72.1,372.6s134.54,300.5,300.5,300.5
	c70.75,0,135.79-24.46,187.13-65.37l70.89,70.89c-9.85,10.64-9.6,27.25,0.74,37.59l207.7,207.7c5.31,5.31,13.92,5.31,19.23,0
	l65.62-65.62C929.22,852.98,929.22,844.37,923.91,839.06z M130.1,372.6c0-133.93,108.57-242.5,242.5-242.5s242.5,108.57,242.5,242.5
	S506.53,615.1,372.6,615.1S130.1,506.53,130.1,372.6z"/>
</svg>
