<?xml version="1.0" encoding="utf-8"?>
<!-- Generator: Adobe Illustrator 28.0.0, SVG Export Plug-In . SVG Version: 6.00 Build 0)  -->
<svg version="1.1" id="Calque_1" xmlns="http://www.w3.org/2000/svg" xmlns:xlink="http://www.w3.org/1999/xlink" x="0px" y="0px"
	 viewBox="0 0 2000 2000" style="enable-background:new 0 0 2000 2000;" xml:space="preserve">
<style type="text/css">
	.st0{fill:#FFFFFF;fill-opacity:0;}
	.st1{fill:#400EB1;}
</style>
<rect x="20" y="19.8" class="st0" width="1960.42" height="1960.42"/>
<path class="st1" d="M1548.15,615.52c-31.37-32.35-83.07-33.33-115.42-1.96s-33.33,83.07-1.96,115.42c0.74,0.74,1.23,1.47,1.96,1.96
	l268.82,269.07l-269.07,269.07c-32.35,31.37-33.33,83.07-1.96,115.42s83.07,33.33,115.42,1.96c0.74-0.74,1.47-1.23,1.96-1.96
	l326.66-326.66c31.86-31.86,31.86-83.56,0-115.42L1548.15,615.52z M1085,405.76L758.34,1549.42
	c-12.5,43.37,12.74,88.46,56.12,100.96c7.35,1.96,14.95,3.19,22.54,3.19c36.51,0,68.61-24.26,78.42-59.3L1242.08,450.6
	c13.97-42.88-9.56-88.95-52.44-102.92c-42.88-13.97-88.95,9.56-102.92,52.44C1086.22,401.84,1085.49,403.8,1085,405.76L1085,405.76z
	 M452.27,1384.5c31.37,32.35,83.07,33.33,115.42,1.96c32.35-31.37,33.33-83.07,1.96-115.42c-0.74-0.74-1.23-1.47-1.96-1.96
	l-268.82-269.07l269.07-269.07c32.35-31.37,33.33-83.07,1.96-115.42c-31.37-32.35-83.07-33.33-115.42-1.96
	c-0.74,0.74-1.47,1.23-1.96,1.96l-326.9,326.66c-31.86,31.86-31.86,83.56,0,115.42L452.27,1384.5z"/>
</svg>
