<?xml version="1.0" standalone="no"?><svg xmlns="http://www.w3.org/2000/svg" viewBox="0 0 1440 320"><path fill="#400EB1" fill-opacity="1" d="M0,160L30,144C60,128,120,96,180,74.7C240,53,300,43,360,64C420,85,480,139,540,133.3C600,128,660,64,720,58.7C780,53,840,107,900,117.3C960,128,1020,96,1080,106.7C1140,117,1200,171,1260,165.3C1320,160,1380,96,1410,64L1440,32L1440,320L1410,320C1380,320,1320,320,1260,320C1200,320,1140,320,1080,320C1020,320,960,320,900,320C840,320,780,320,720,320C660,320,600,320,540,320C480,320,420,320,360,320C300,320,240,320,180,320C120,320,60,320,30,320L0,320Z"></path></svg>